<?xml version="1.0" encoding="utf-8"?>
<!-- Generator: Adobe Illustrator 16.0.0, SVG Export Plug-In . SVG Version: 6.00 Build 0)  -->
<!DOCTYPE svg PUBLIC "-//W3C//DTD SVG 1.1//EN" "http://www.w3.org/Graphics/SVG/1.1/DTD/svg11.dtd">
<svg version="1.1" id="Layer_1" xmlns="http://www.w3.org/2000/svg" xmlns:xlink="http://www.w3.org/1999/xlink" x="0px" y="0px"
	 width="38px" height="41px"  xml:space="preserve">
<g>
	<path d="M33.9,7.1L23.4,1c-2.4-1.4-6.3-1.4-8.7,0l-10.4,6C1.9,8.4,0,11.8,0,14.6v12.1c0,2.8,1.9,6.1,4.3,7.5l10.4,6
		c2.4,1.4,6.3,1.4,8.7,0l10.4-6c2.4-1.4,4.3-4.8,4.3-7.5V14.6C38.2,11.8,36.2,8.4,33.9,7.1z M23.1,31.3h-8.1v-3.8h8.1V31.3z
		 M31.9,31.3h-4.4V15.9h-4.4V23h-8.1v-7.1h-4.4v15.4H6.3V9.9h25.6V31.3z"/>
</g>
</svg>
